<?xml version="1.0" standalone="no"?>
<!DOCTYPE svg PUBLIC "-//W3C//DTD SVG 20010904//EN"
 "http://www.w3.org/TR/2001/REC-SVG-20010904/DTD/svg10.dtd">
<svg version="1.0" xmlns="http://www.w3.org/2000/svg"
 width="512.000000pt" height="512.000000pt" viewBox="0 0 512.000000 512.000000"
 preserveAspectRatio="xMidYMid meet">
<metadata>
Created by potrace 1.14, written by Peter Selinger 2001-2017
</metadata>
<g transform="translate(0.000000,512.000000) scale(0.100000,-0.100000)"
fill="#000000" stroke="none">
<path d="M2768 4364 c-190 -30 -279 -89 -256 -172 15 -55 85 -89 253 -123 28
-6 67 -12 88 -15 45 -6 127 -40 127 -53 0 -13 -54 -29 -120 -36 -49 -6 -82
-11 -200 -30 -244 -41 -515 -149 -599 -240 -100 -108 -72 -231 80 -350 94 -73
231 -141 454 -225 487 -183 790 -336 912 -461 24 -23 46 -51 49 -62 15 -47
-87 -101 -251 -133 -11 -2 -60 -13 -110 -23 -49 -11 -164 -36 -255 -56 -551
-120 -948 -238 -1230 -365 -316 -143 -519 -295 -816 -611 -176 -188 -373 -482
-387 -576 -11 -74 82 -117 120 -56 9 16 18 30 20 32 2 2 833 6 1847 8 l1844 4
107 -36 c88 -29 110 -33 128 -23 32 17 45 39 40 68 -6 37 -19 46 -123 80 -534
180 -826 393 -756 553 39 90 241 236 542 391 221 115 277 173 319 331 20 80
14 215 -13 285 -100 257 -446 512 -952 702 -262 99 -596 184 -835 213 -338 41
-535 91 -602 155 -46 42 -21 85 75 134 135 68 392 136 567 151 221 19 333 113
271 228 -36 67 -123 116 -236 133 -30 4 -57 9 -60 9 -3 1 -25 6 -49 10 -65 12
-19 30 87 34 27 1 72 42 68 62 -12 68 -40 80 -148 63z"/>
</g>
</svg>
